<?xml version="1.0" encoding="utf-8"?>
<svg version="1.1" xmlns:xlink="http://www.w3.org/1999/xlink" width="11px" height="17px" xmlns="http://www.w3.org/2000/svg">
  <g transform="matrix(1 0 0 1 -713 -229 )">
    <path d="M 11 2.42555831265509  C 11 2.60835401157982  10.9327541827542 2.76654259718776  10.7982625482625 2.90012406947891  L 5.16023166023166 8.5  L 10.7982625482625 14.0998759305211  C 10.9327541827542 14.2334574028122  11 14.3916459884202  11 14.5744416873449  C 11 14.7572373862696  10.9327541827542 14.9154259718776  10.7982625482625 15.0490074441687  L 9.03571428571428 16.7996277915633  C 8.90122265122265 16.9332092638544  8.74195624195624 17  8.55791505791506 17  C 8.37387387387387 17  8.21460746460747 16.9332092638544  8.08011583011583 16.7996277915633  L 0.201737451737452 8.97456575682382  C 0.0672458172458174 8.84098428453267  0 8.68279569892473  0 8.5  C 0 8.31720430107527  0.0672458172458174 8.15901571546733  0.201737451737452 8.02543424317618  L 8.08011583011583 0.200372208436724  C 8.21460746460747 0.0667907361455741  8.37387387387387 0  8.55791505791506 0  C 8.74195624195624 0  8.90122265122265 0.0667907361455741  9.03571428571428 0.200372208436724  L 10.7982625482625 1.95099255583127  C 10.9327541827542 2.08457402812241  11 2.24276261373035  11 2.42555831265509  Z " fill-rule="nonzero" fill="#d7d7d7" stroke="none" transform="matrix(1 0 0 1 713 229 )" />
  </g>
</svg>