<?xml version="1.0" encoding="utf-8"?>
<svg version="1.1" xmlns:xlink="http://www.w3.org/1999/xlink" width="12px" height="6px" xmlns="http://www.w3.org/2000/svg">
  <g transform="matrix(1 0 0 1 -207 -158 )">
    <path d="M 11.8797595190381 4.90721649484536  C 11.9599198396794 4.97594501718213  12 5.05498281786942  12 5.14432989690722  C 12 5.23367697594502  11.9599198396794 5.3127147766323  11.8797595190381 5.38144329896907  L 11.2785571142285 5.89690721649484  C 11.1983967935872 5.96563573883161  11.1062124248497 6  11.002004008016 6  C 10.8977955911824 6  10.8056112224449 5.96563573883161  10.7254509018036 5.89690721649484  L 6 1.84536082474227  L 1.27454909819639 5.89690721649484  C 1.19438877755511 5.96563573883161  1.10220440881764 6  0.997995991983968 6  C 0.893787575150301 6  0.801603206412826 5.96563573883161  0.721442885771543 5.89690721649484  L 0.120240480961924 5.38144329896907  C 0.0400801603206414 5.3127147766323  0 5.23367697594502  0 5.14432989690722  C 0 5.05498281786942  0.0400801603206414 4.97594501718213  0.120240480961924 4.90721649484536  L 5.72344689378757 0.103092783505155  C 5.80360721442886 0.0343642611683841  5.89579158316633 0  6 0  C 6.10420841683367 0  6.19639278557114 0.0343642611683841  6.27655310621242 0.103092783505155  L 11.8797595190381 4.90721649484536  Z " fill-rule="nonzero" fill="#aaaaaa" stroke="none" transform="matrix(1 0 0 1 207 158 )" />
  </g>
</svg>