<?xml version="1.0" encoding="utf-8"?>
<svg version="1.1" xmlns:xlink="http://www.w3.org/1999/xlink" width="15px" height="17px" xmlns="http://www.w3.org/2000/svg">
  <g transform="matrix(1 0 0 1 -304 -484 )">
    <path d="M 10.3515625 0.645089285714286  L 14.3359375 4.515625  C 14.4270833333333 4.60416666666667  14.5182291666667 4.71800595238095  14.609375 4.85714285714286  L 10 4.85714285714286  L 10 0.379464285714286  C 10.1432291666667 0.468005952380952  10.2604166666667 0.556547619047617  10.3515625 0.645089285714286  Z M 9.0234375 5.80580357142857  C 9.20572916666667 5.9828869047619  9.42708333333333 6.07142857142857  9.6875 6.07142857142857  L 15 6.07142857142857  L 15 16.0892857142857  C 15 16.3422619047619  14.9088541666667 16.5572916666667  14.7265625 16.734375  C 14.5442708333333 16.9114583333333  14.3229166666667 17  14.0625 17  L 0.9375 17  C 0.677083333333333 17  0.455729166666667 16.9114583333333  0.2734375 16.734375  C 0.0911458333333333 16.5572916666667  0 16.3422619047619  0 16.0892857142857  L 0 0.910714285714286  C 0 0.657738095238095  0.0911458333333333 0.442708333333333  0.2734375 0.265625  C 0.455729166666667 0.0885416666666673  0.677083333333333 0  0.9375 0  L 8.75 0  L 8.75 5.16071428571429  C 8.75 5.41369047619047  8.84114583333333 5.62872023809524  9.0234375 5.80580357142857  Z M 11.162109375 13.2717633928571  C 11.220703125 13.21484375  11.25 13.1421130952381  11.25 13.0535714285714  L 11.25 12.4464285714286  C 11.25 12.3578869047619  11.220703125 12.28515625  11.162109375 12.2282366071429  C 11.103515625 12.1713169642857  11.0286458333333 12.1428571428571  10.9375 12.1428571428571  L 4.0625 12.1428571428571  C 3.97135416666667 12.1428571428571  3.896484375 12.1713169642857  3.837890625 12.2282366071429  C 3.779296875 12.28515625  3.75 12.3578869047619  3.75 12.4464285714286  L 3.75 13.0535714285714  C 3.75 13.1421130952381  3.779296875 13.21484375  3.837890625 13.2717633928571  C 3.896484375 13.3286830357143  3.97135416666667 13.3571428571429  4.0625 13.3571428571429  L 10.9375 13.3571428571429  C 11.0286458333333 13.3571428571429  11.103515625 13.3286830357143  11.162109375 13.2717633928571  Z M 11.162109375 10.8431919642857  C 11.220703125 10.7862723214286  11.25 10.7135416666667  11.25 10.625  L 11.25 10.0178571428571  C 11.25 9.92931547619048  11.220703125 9.85658482142857  11.162109375 9.79966517857143  C 11.103515625 9.74274553571429  11.0286458333333 9.71428571428571  10.9375 9.71428571428571  L 4.0625 9.71428571428571  C 3.97135416666667 9.71428571428571  3.896484375 9.74274553571429  3.837890625 9.79966517857143  C 3.779296875 9.85658482142857  3.75 9.92931547619048  3.75 10.0178571428571  L 3.75 10.625  C 3.75 10.7135416666667  3.779296875 10.7862723214286  3.837890625 10.8431919642857  C 3.896484375 10.9001116071429  3.97135416666667 10.9285714285714  4.0625 10.9285714285714  L 10.9375 10.9285714285714  C 11.0286458333333 10.9285714285714  11.103515625 10.9001116071429  11.162109375 10.8431919642857  Z M 11.162109375 8.41462053571429  C 11.220703125 8.35770089285714  11.25 8.28497023809524  11.25 8.19642857142857  L 11.25 7.58928571428571  C 11.25 7.50074404761905  11.220703125 7.42801339285714  11.162109375 7.37109375  C 11.103515625 7.31417410714286  11.0286458333333 7.28571428571429  10.9375 7.28571428571429  L 4.0625 7.28571428571429  C 3.97135416666667 7.28571428571429  3.896484375 7.31417410714286  3.837890625 7.37109375  C 3.779296875 7.42801339285714  3.75 7.50074404761905  3.75 7.58928571428571  L 3.75 8.19642857142857  C 3.75 8.28497023809524  3.779296875 8.35770089285714  3.837890625 8.41462053571429  C 3.896484375 8.47154017857143  3.97135416666667 8.5  4.0625 8.5  L 10.9375 8.5  C 11.0286458333333 8.5  11.103515625 8.47154017857143  11.162109375 8.41462053571429  Z " fill-rule="nonzero" fill="#02a7f0" stroke="none" transform="matrix(1 0 0 1 304 484 )" />
  </g>
</svg>