<?xml version="1.0" encoding="utf-8"?>
<svg version="1.1" xmlns:xlink="http://www.w3.org/1999/xlink" width="144px" height="132px" xmlns="http://www.w3.org/2000/svg">
  <g transform="matrix(1 0 0 1 -1589 -299 )">
    <path d="M 61.575 79.5298126064736  C 65.325 75.7819420783646  67.2 71.259511641113  67.2 65.9625212947189  C 67.2 60.6655309483248  65.325 56.1431005110733  61.575 52.3952299829642  C 57.825 48.6473594548552  53.3 46.7734241908007  48 46.7734241908007  C 42.7 46.7734241908007  38.175 48.6473594548552  34.425 52.3952299829642  C 30.675 56.1431005110733  28.8 60.6655309483248  28.8 65.9625212947189  C 28.8 71.259511641113  30.675 75.7819420783646  34.425 79.5298126064736  C 38.175 83.2776831345826  42.7 85.1516183986371  48 85.1516183986371  C 53.3 85.1516183986371  57.825 83.2776831345826  61.575 79.5298126064736  Z M 121.9875 111.124361158433  C 123.8625 109.250425894378  124.8 106.989210675752  124.8 104.340715502555  C 124.8 101.7421919364  123.85 99.4934696195344  121.95 97.5945485519591  C 120.05 95.6956274843839  117.8 94.7461669505962  115.2 94.7461669505962  C 112.6 94.7461669505962  110.35 95.6956274843839  108.45 97.5945485519591  C 106.55 99.4934696195344  105.6 101.7421919364  105.6 104.340715502555  C 105.6 106.989210675752  106.5375 109.250425894378  108.4125 111.124361158433  C 110.2875 112.998296422487  112.55 113.935264054514  115.2 113.935264054514  C 117.85 113.935264054514  120.1125 112.998296422487  121.9875 111.124361158433  Z M 121.9875 34.3679727427598  C 123.8625 32.4940374787053  124.8 30.2328222600795  124.8 27.5843270868825  C 124.8 24.9858035207269  123.85 22.7370812038614  121.95 20.8381601362862  C 120.05 18.939239068711  117.8 17.9897785349233  115.2 17.9897785349233  C 112.6 17.9897785349233  110.35 18.939239068711  108.45 20.8381601362862  C 106.55 22.7370812038614  105.6 24.9858035207269  105.6 27.5843270868825  C 105.6 30.2328222600795  106.5375 32.4940374787053  108.4125 34.3679727427598  C 110.2875 36.2419080068143  112.55 37.1788756388416  115.2 37.1788756388416  C 117.85 37.1788756388416  120.1125 36.2419080068143  121.9875 34.3679727427598  Z M 95.475 57.6797274275979  C 95.825 58.1044860874503  96 58.5917092561045  96 59.1413969335605  L 96 73.0085178875639  C 96 73.5082339579784  95.825 73.9954571266326  95.475 74.4701873935264  C 95.125 74.9449176604202  94.725 75.2072685973878  94.275 75.2572402044293  L 82.65 77.0562180579216  C 82.1 78.8052243043725  81.3 80.7041453719477  80.25 82.7529812606474  C 81.95 85.1516183986371  84.2 88.0249858035207  87 91.3730834752981  C 87.35 91.9227711527541  87.525 92.4224872231687  87.525 92.8722316865417  C 87.525 93.4718909710392  87.35 93.946621237933  87 94.2964224872232  C 85.85 95.7955706984668  83.7875 98.0318001135718  80.8125 101.005110732538  C 77.8375 103.978421351505  75.875 105.465076660988  74.925 105.465076660988  C 74.375 105.465076660988  73.85 105.290176036343  73.35 104.940374787053  L 64.725 98.1942078364566  C 62.875 99.1436683702442  60.95 99.9182282793867  58.95 100.517887563884  C 58.4 105.914821124361  57.825 109.787620670074  57.225 112.136286201022  C 56.875 113.335604770017  56.125 113.935264054514  54.975 114  L 41.025 114  C 40.475 113.935264054514  39.975 113.747870528109  39.525 113.373083475298  C 39.075 112.998296422487  38.825 112.561044860875  38.775 112.06132879046  L 37.05 100.592844974446  C 35.35 100.093128904032  33.475 99.3185689948893  31.425 98.2691652470187  L 22.575 104.940374787053  C 22.225 105.290176036343  21.725 105.465076660988  21.075 105.465076660988  C 20.525 105.465076660988  20 105.265190232822  19.5 104.865417376491  C 12.3 98.2191936399773  8.7 94.221465076661  8.7 92.8722316865417  C 8.7 92.4224872231687  8.875 91.9477569562748  9.225 91.4480408858603  C 9.725 90.7484383872799  10.75 89.4241908006814  12.3 87.4752981260647  C 13.85 85.526405451448  15.025 84.0022714366837  15.825 82.9028960817717  C 14.675 80.7041453719477  13.8 78.6553094832481  13.2 76.7563884156729  L 1.8 74.9574105621806  C 1.3 74.9074389551391  0.875 74.6700738216922  0.525 74.2453151618399  C 0.175 73.8205565019875  0 73.3333333333333  0 72.7836456558773  L 0 58.9165247018739  C 0 58.4168086314594  0.175 57.9295854628052  0.525 57.4548551959114  C 0.875 56.9801249290176  1.275 56.71777399205  1.725 56.6678023850085  L 13.35 54.8688245315162  C 13.9 53.1198182850653  14.7 51.2208972174901  15.75 49.1720613287905  C 14.05 46.7734241908007  11.8 43.9000567859171  9 40.5519591141397  C 8.65 40.0022714366837  8.475 39.5025553662692  8.475 39.0528109028961  C 8.475 38.4531516183986  8.65 37.9534355479841  9 37.5536626916525  C 10.1 36.0545144804089  12.15 33.8307779670642  15.15 30.8824531516184  C 18.15 27.9341283361726  20.125 26.4599659284498  21.075 26.4599659284498  C 21.625 26.4599659284498  22.15 26.6348665530948  22.65 26.984667802385  L 31.275 33.7308347529813  C 32.975 32.8313458262351  34.9 32.0318001135718  37.05 31.3321976149915  C 37.6 25.9352640545145  38.175 22.0874503123225  38.775 19.7887563884157  C 39.125 18.5894378194208  39.875 17.9897785349233  41.025 18  L 54.975 18  C 55.525 17.9897785349233  56.025 18.1771720613288  56.475 18.5519591141397  C 56.925 18.9267461669506  57.175 19.3639977285633  57.225 19.8637137989779  L 58.95 31.3321976149915  C 60.65 31.831913685406  62.525 32.6064735945485  64.575 33.6558773424191  L 73.425 26.984667802385  C 73.825 26.6348665530948  74.325 26.4599659284498  74.925 26.4599659284498  C 75.475 26.4599659284498  76 26.6598523566155  76.5 27.0596252129472  C 83.7 33.7058489494605  87.3 37.7035775127768  87.3 39.0528109028961  C 87.3 39.4525837592277  87.125 39.9273140261215  86.775 40.4770017035775  C 86.175 41.2765474162408  85.125 42.62578080636  83.625 44.5247018739353  C 82.125 46.4236229415105  81 47.9227711527541  80.25 49.0221465076661  C 81.4 51.4207836456559  82.25 53.4696195343555  82.8 55.1686541737649  L 94.2 56.8926746166951  C 94.7 56.992617830778  95.125 57.2549687677456  95.475 57.6797274275979  Z M 132.825 96.7700170357751  C 140.275 97.5195911413969  144 98.2941510505395  144 99.0936967632027  L 144 109.587734241908  C 144 110.387279954571  140.275 111.161839863714  132.825 111.911413969336  C 132.225 113.260647359455  131.475 114.559909142533  130.575 115.809199318569  C 133.125 121.455990914253  134.4 124.904031800114  134.4 126.15332197615  C 134.4 126.353208404316  134.3 126.528109028961  134.1 126.678023850085  C 128 130.226007950028  124.9 132  124.8 132  C 124.4 132  123.25 130.825667234526  121.35 128.477001703578  C 119.45 126.128336172629  118.15 124.42930153322  117.45 123.379897785349  C 116.45 123.479840999432  115.7 123.529812606474  115.2 123.529812606474  C 114.7 123.529812606474  113.95 123.479840999432  112.95 123.379897785349  C 112.25 124.42930153322  110.95 126.128336172629  109.05 128.477001703578  C 107.15 130.825667234526  106 132  105.6 132  C 105.5 132  102.4 130.226007950028  96.3 126.678023850085  C 96.1 126.528109028961  96 126.353208404316  96 126.15332197615  C 96 124.904031800114  97.275 121.455990914253  99.825 115.809199318569  C 98.925 114.559909142533  98.175 113.260647359455  97.575 111.911413969336  C 90.125 111.161839863714  86.4 110.387279954571  86 109.587734241908  L 86 99.0936967632027  C 86.4 98.2941510505395  90.125 97.5195911413969  97.575 96.7700170357751  C 98.225 95.3208404315729  98.975 94.0215786484952  99.825 92.8722316865417  C 97.275 87.2254400908575  96 83.7773992049972  96 82.5281090289608  C 96 82.328222600795  96.1 82.1533219761499  96.3 82.0034071550256  C 96.5 81.9034639409426  97.375 81.4037478705281  98.925 80.5042589437819  C 100.475 79.6047700170358  101.95 78.755252697331  103.35 77.9557069846678  C 104.75 77.1561612720045  105.5 76.7563884156729  105.6 76.7563884156729  C 106 76.7563884156729  107.15 77.9182282793867  109.05 80.2419080068143  C 110.95 82.5655877342419  112.25 84.252129471891  112.95 85.3015332197615  C 113.95 85.2015900056786  114.7 85.1516183986371  115.2 85.1516183986371  C 115.7 85.1516183986371  116.45 85.2015900056786  117.45 85.3015332197615  C 120 81.7535491198183  122.3 78.9551391254969  124.35 76.9063032367973  L 124.8 76.7563884156729  C 125 76.7563884156729  128.1 78.5053946621238  134.1 82.0034071550256  C 134.3 82.1533219761499  134.4 82.328222600795  134.4 82.5281090289608  C 134.4 83.7773992049972  133.125 87.2254400908575  130.575 92.8722316865417  C 131.425 94.0215786484952  132.175 95.3208404315729  132.825 96.7700170357751  Z M 132.825 20.0136286201022  C 140.275 20.763202725724  144 21.5377626348665  144 22.3373083475298  L 144 32.8313458262351  C 144 33.6308915388983  140.275 34.4054514480409  132.825 35.1550255536627  C 132.225 36.5042589437819  131.475 37.8035207268597  130.575 39.0528109028961  C 133.125 44.6996024985803  134.4 48.1476433844407  134.4 49.396933560477  C 134.4 49.5968199886428  134.3 49.7717206132879  134.1 49.9216354344123  C 128 53.4696195343555  124.9 55.2436115843271  124.8 55.2436115843271  C 124.4 55.2436115843271  123.25 54.0692788188529  121.35 51.7206132879046  C 119.45 49.3719477569563  118.15 47.6729131175468  117.45 46.6235093696763  C 116.45 46.7234525837592  115.7 46.7734241908007  115.2 46.7734241908007  C 114.7 46.7734241908007  113.95 46.7234525837592  112.95 46.6235093696763  C 112.25 47.6729131175468  110.95 49.3719477569563  109.05 51.7206132879046  C 107.15 54.0692788188529  106 55.2436115843271  105.6 55.2436115843271  C 105.5 55.2436115843271  102.4 53.4696195343555  96.3 49.9216354344123  C 96.1 49.7717206132879  96 49.5968199886428  96 49.396933560477  C 96 48.1476433844407  97.275 44.6996024985803  99.825 39.0528109028961  C 98.925 37.8035207268597  98.175 36.5042589437819  97.575 35.1550255536627  C 90.125 34.4054514480409  86.4 33.6308915388983  86 32.8313458262351  L 86 22.3373083475298  C 86.4 21.5377626348665  90.125 20.763202725724  97.575 20.0136286201022  C 98.225 18.5644520159001  98.975 17.2651902328222  99.825 16.1158432708688  C 97.275 10.4690516751845  96 7.02101078932423  96 5.77172061328791  C 96 5.57183418512208  96.1 5.39693356047701  96.3 5.24701873935264  C 96.5 5.14707552526972  97.375 4.6473594548552  98.925 3.74787052810903  C 100.475 2.84838160136286  101.95 1.99886428165813  103.35 1.19931856899489  C 104.75 0.39977285633162  105.5 0  105.6 0  C 106 0  107.15 1.16183986371379  109.05 3.48551959114139  C 110.95 5.80919931856899  112.25 7.49574105621806  112.95 8.54514480408859  C 113.95 8.44520159000567  114.7 8.39522998296423  115.2 8.39522998296423  C 115.7 8.39522998296423  116.45 8.44520159000567  117.45 8.54514480408859  C 120 4.99716070414536  122.3 2.19875070982396  124.35 0.149914821124361  L 124.8 0  C 125 0  128.1 1.74900624645087  134.1 5.24701873935264  C 134.3 5.39693356047701  134.4 5.57183418512208  134.4 5.77172061328791  C 134.4 7.02101078932423  133.125 10.4690516751845  130.575 16.1158432708688  C 131.425 17.2651902328222  132.175 18.5644520159001  132.825 20.0136286201022  Z " fill-rule="nonzero" fill="#aaaaaa" stroke="none" transform="matrix(1 0 0 1 1589 299 )" />
  </g>
</svg>