<?xml version="1.0" encoding="utf-8"?>
<svg version="1.1" xmlns:xlink="http://www.w3.org/1999/xlink" width="36px" height="36px" xmlns="http://www.w3.org/2000/svg">
  <g transform="matrix(1 0 0 1 -1193 -11 )">
    <path d="M 1211 12  C 1220.52 12  1228 19.48  1228 29  C 1228 38.52  1220.52 46  1211 46  C 1201.48 46  1194 38.52  1194 29  C 1194 19.48  1201.48 12  1211 12  Z " fill-rule="nonzero" fill="#d0d5fb" stroke="none" />
    <path d="M 1211 12  C 1220.52 12  1228 19.48  1228 29  C 1228 38.52  1220.52 46  1211 46  C 1201.48 46  1194 38.52  1194 29  C 1194 19.48  1201.48 12  1211 12  Z " stroke-width="2" stroke="#ffffff" fill="none" />
  </g>
</svg>