<?xml version="1.0" encoding="utf-8"?>
<svg version="1.1" xmlns:xlink="http://www.w3.org/1999/xlink" width="20px" height="16px" xmlns="http://www.w3.org/2000/svg">
  <g transform="matrix(1 0 0 1 -1105 -22 )">
    <path d="M 11.4285714285714 13.0909090909091  L 11.4285714285714 14.5454545454545  L 18.5714285714286 14.5454545454545  L 18.5714285714286 13.0909090909091  L 11.4285714285714 13.0909090909091  Z M 7.14285714285714 7.27272727272727  L 7.14285714285714 8.72727272727273  L 18.5714285714286 8.72727272727273  L 18.5714285714286 7.27272727272727  L 7.14285714285714 7.27272727272727  Z M 14.2857142857143 1.45454545454546  L 14.2857142857143 2.90909090909091  L 18.5714285714286 2.90909090909091  L 18.5714285714286 1.45454545454546  L 14.2857142857143 1.45454545454546  Z M 19.7879464285714 11.8522727272727  C 19.9293154761905 11.9962121212121  20 12.1666666666667  20 12.3636363636364  L 20 15.2727272727273  C 20 15.469696969697  19.9293154761905 15.6401515151515  19.7879464285714 15.7840909090909  C 19.6465773809524 15.9280303030303  19.4791666666667 16  19.2857142857143 16  L 0.714285714285714 16  C 0.520833333333333 16  0.353422619047619 15.9280303030303  0.212053571428571 15.7840909090909  C 0.0706845238095238 15.6401515151515  0 15.469696969697  0 15.2727272727273  L 0 12.3636363636364  C 0 12.1666666666667  0.0706845238095238 11.9962121212121  0.212053571428571 11.8522727272727  C 0.353422619047619 11.7083333333333  0.520833333333333 11.6363636363636  0.714285714285714 11.6363636363636  L 19.2857142857143 11.6363636363636  C 19.4791666666667 11.6363636363636  19.6465773809524 11.7083333333333  19.7879464285714 11.8522727272727  Z M 19.7879464285714 6.03409090909091  C 19.9293154761905 6.1780303030303  20 6.34848484848485  20 6.54545454545455  L 20 9.45454545454545  C 20 9.65151515151515  19.9293154761905 9.8219696969697  19.7879464285714 9.96590909090909  C 19.6465773809524 10.1098484848485  19.4791666666667 10.1818181818182  19.2857142857143 10  L 0.714285714285714 10  C 0.520833333333333 10.1818181818182  0.353422619047619 10.1098484848485  0.212053571428571 9.96590909090909  C 0.0706845238095238 9.8219696969697  0 9.65151515151515  0 9.45454545454545  L 0 6.54545454545455  C 0 6.34848484848485  0.0706845238095238 6.1780303030303  0.212053571428571 6.03409090909091  C 0.353422619047619 5.89015151515151  0.520833333333333 5.81818181818182  0.714285714285714 6  L 19.2857142857143 6  C 19.4791666666667 5.81818181818182  19.6465773809524 5.89015151515151  19.7879464285714 6.03409090909091  Z M 19.7879464285714 0.215909090909092  C 19.9293154761905 0.359848484848483  20 0.530303030303029  20 0.727272727272727  L 20 3.63636363636364  C 20 3.83333333333333  19.9293154761905 4.00378787878788  19.7879464285714 4.14772727272727  C 19.6465773809524 4.29166666666666  19.4791666666667 4.36363636363636  19.2857142857143 4.36363636363636  L 0.714285714285714 4.36363636363636  C 0.520833333333333 4.36363636363636  0.353422619047619 4.29166666666666  0.212053571428571 4.14772727272727  C 0.0706845238095238 4.00378787878788  0 3.83333333333333  0 3.63636363636364  L 0 0.727272727272727  C 0 0.530303030303029  0.0706845238095238 0.359848484848483  0.212053571428571 0.215909090909092  C 0.353422619047619 0.0719696969696955  0.520833333333333 0  0.714285714285714 0  L 19.2857142857143 0  C 19.4791666666667 0  19.6465773809524 0.0719696969696955  19.7879464285714 0.215909090909092  Z " fill-rule="nonzero" fill="#ffffff" stroke="none" transform="matrix(1 0 0 1 1105 22 )" />
  </g>
</svg>