<?xml version="1.0" encoding="utf-8"?>
<svg version="1.1" xmlns:xlink="http://www.w3.org/1999/xlink" width="10px" height="10px" xmlns="http://www.w3.org/2000/svg">
  <g transform="matrix(1 0 0 1 -408 -637 )">
    <path d="M 9.29036458333333 3.62630208333333  L 8.35286458333333 2.68880208333333  L 6.04166666666667 5  L 8.35286458333333 7.31119791666667  L 9.29036458333333 6.37369791666667  C 9.41623263888889 6.23914930555556  9.56814236111111 6.20876736111111  9.74609375 6.28255208333333  C 9.91536458333333 6.35633680555556  10 6.484375  10 6.66666666666667  L 10 9.58333333333333  C 10 9.69618055555556  9.95876736111111 9.79383680555556  9.87630208333333 9.87630208333333  C 9.79383680555556 9.95876736111111  9.69618055555556 10  9.58333333333333 10  L 6.66666666666667 10  C 6.484375 10  6.35633680555556 9.91319444444444  6.28255208333333 9.73958333333333  C 6.20876736111111 9.5703125  6.23914930555556 9.42057291666667  6.37369791666667 9.29036458333333  L 7.31119791666667 8.35286458333333  L 5 6.04166666666667  L 2.68880208333333 8.35286458333333  L 3.62630208333333 9.29036458333333  C 3.76085069444444 9.42057291666667  3.79123263888889 9.5703125  3.71744791666667 9.73958333333333  C 3.64366319444444 9.91319444444444  3.515625 10  3.33333333333333 10  L 0.416666666666667 10  C 0.303819444444444 10  0.206163194444444 9.95876736111111  0.123697916666667 9.87630208333333  C 0.0412326388888889 9.79383680555556  0 9.69618055555556  0 9.58333333333333  L 0 6.66666666666667  C 0 6.484375  0.0868055555555555 6.35633680555556  0.260416666666667 6.28255208333333  C 0.4296875 6.20876736111111  0.579427083333333 6.23914930555556  0.709635416666667 6.37369791666667  L 1.64713541666667 7.31119791666667  L 3.95833333333333 5  L 1.64713541666667 2.68880208333333  L 0.709635416666667 3.62630208333333  C 0.627170138888889 3.70876736111111  0.529513888888889 3.75  0.416666666666667 3.75  C 0.364583333333333 3.75  0.3125 3.73914930555555  0.260416666666667 3.71744791666667  C 0.0868055555555555 3.64366319444444  0 3.515625  0 3.33333333333333  L 0 0.416666666666666  C 0 0.303819444444443  0.0412326388888889 0.206163194444443  0.123697916666667 0.123697916666666  C 0.206163194444444 0.0412326388888884  0.303819444444444 0  0.416666666666667 0  L 3.33333333333333 0  C 3.515625 0  3.64366319444444 0.0868055555555547  3.71744791666667 0.260416666666666  C 3.79123263888889 0.4296875  3.76085069444444 0.579427083333334  3.62630208333333 0.709635416666666  L 2.68880208333333 1.64713541666667  L 5 3.95833333333333  L 7.31119791666667 1.64713541666667  L 6.37369791666667 0.709635416666666  C 6.23914930555556 0.579427083333334  6.20876736111111 0.4296875  6.28255208333333 0.260416666666666  C 6.35633680555556 0.0868055555555547  6.484375 0  6.66666666666667 0  L 9.58333333333333 0  C 9.69618055555556 0  9.79383680555556 0.0412326388888884  9.87630208333333 0.123697916666666  C 9.95876736111111 0.206163194444443  10 0.303819444444443  10 0.416666666666666  L 10 3.33333333333333  C 10 3.515625  9.91536458333333 3.64366319444444  9.74609375 3.71744791666667  C 9.68967013888889 3.73914930555555  9.63541666666667 3.75  9.58333333333333 3.75  C 9.47048611111111 3.75  9.37282986111111 3.70876736111111  9.29036458333333 3.62630208333333  Z " fill-rule="nonzero" fill="#d7d7d7" stroke="none" transform="matrix(1 0 0 1 408 637 )" />
  </g>
</svg>