<?xml version="1.0" encoding="utf-8"?>
<svg version="1.1" xmlns:xlink="http://www.w3.org/1999/xlink" width="8px" height="8px" xmlns="http://www.w3.org/2000/svg">
  <g transform="matrix(1 0 0 1 -1308 -153 )">
    <path d="M 7.43229166666667 2.90104166666667  L 6.68229166666667 2.15104166666667  L 4.83333333333333 4  L 6.68229166666667 5.84895833333333  L 7.43229166666667 5.09895833333333  C 7.53298611111111 4.99131944444444  7.65451388888889 4.96701388888889  7.796875 5.02604166666667  C 7.93229166666667 5.08506944444444  8 5.1875  8 5.33333333333333  L 8 7.66666666666667  C 8 7.75694444444444  7.96701388888889 7.83506944444444  7.90104166666667 7.90104166666667  C 7.83506944444445 7.96701388888889  7.75694444444445 8  7.66666666666667 8  L 5.33333333333333 8  C 5.1875 8  5.08506944444444 7.93055555555556  5.02604166666667 7.79166666666667  C 4.96701388888889 7.65625  4.99131944444445 7.53645833333333  5.09895833333333 7.43229166666667  L 5.84895833333333 6.68229166666667  L 4 4.83333333333333  L 2.15104166666667 6.68229166666667  L 2.90104166666667 7.43229166666667  C 3.00868055555556 7.53645833333333  3.03298611111111 7.65625  2.97395833333333 7.79166666666667  C 2.91493055555556 7.93055555555556  2.8125 8  2.66666666666667 8  L 0.333333333333333 8  C 0.243055555555556 8  0.164930555555556 7.96701388888889  0.0989583333333333 7.90104166666667  C 0.0329861111111111 7.83506944444444  0 7.75694444444444  0 7.66666666666667  L 0 5.33333333333333  C 0 5.1875  0.0694444444444444 5.08506944444444  0.208333333333333 5.02604166666667  C 0.34375 4.96701388888889  0.463541666666667 4.99131944444444  0.567708333333333 5.09895833333333  L 1.31770833333333 5.84895833333333  L 3.16666666666667 4  L 1.31770833333333 2.15104166666667  L 0.567708333333333 2.90104166666667  C 0.501736111111111 2.96701388888889  0.423611111111111 3  0.333333333333333 3  C 0.291666666666667 3  0.25 2.99131944444444  0.208333333333333 2.97395833333333  C 0.0694444444444444 2.91493055555556  0 2.8125  0 2.66666666666667  L 0 0.333333333333333  C 0 0.243055555555554  0.0329861111111111 0.164930555555554  0.0989583333333333 0.098958333333333  C 0.164930555555556 0.0329861111111107  0.243055555555556 0  0.333333333333333 0  L 2.66666666666667 0  C 2.8125 0  2.91493055555556 0.0694444444444438  2.97395833333333 0.208333333333333  C 3.03298611111111 0.34375  3.00868055555556 0.463541666666667  2.90104166666667 0.567708333333333  L 2.15104166666667 1.31770833333333  L 4 3.16666666666667  L 5.84895833333333 1.31770833333333  L 5.09895833333333 0.567708333333333  C 4.99131944444445 0.463541666666667  4.96701388888889 0.34375  5.02604166666667 0.208333333333333  C 5.08506944444444 0.0694444444444438  5.1875 0  5.33333333333333 0  L 7.66666666666667 0  C 7.75694444444445 0  7.83506944444445 0.0329861111111107  7.90104166666667 0.098958333333333  C 7.96701388888889 0.164930555555554  8 0.243055555555554  8 0.333333333333333  L 8 2.66666666666667  C 8 2.8125  7.93229166666667 2.91493055555556  7.796875 2.97395833333333  C 7.75173611111111 2.99131944444444  7.70833333333333 3  7.66666666666667 3  C 7.57638888888889 3  7.49826388888889 2.96701388888889  7.43229166666667 2.90104166666667  Z " fill-rule="nonzero" fill="#d7d7d7" stroke="none" transform="matrix(1 0 0 1 1308 153 )" />
  </g>
</svg>