<?xml version="1.0" encoding="utf-8"?>
<svg version="1.1" xmlns:xlink="http://www.w3.org/1999/xlink" width="14px" height="10px" xmlns="http://www.w3.org/2000/svg">
  <g transform="matrix(1 0 0 1 -473 -959 )">
    <path d="M 13.8515625 8.31676136363636  C 13.9505208333333 8.40672348484848  14 8.51325757575758  14 8.63636363636364  L 14 9.54545454545455  C 14 9.66856060606061  13.9505208333333 9.7750946969697  13.8515625 9.86505681818182  C 13.7526041666667 9.95501893939394  13.6354166666667 10  13.5 10  L 0.5 10  C 0.364583333333333 10  0.247395833333333 9.95501893939394  0.1484375 9.86505681818182  C 0.0494791666666667 9.7750946969697  0 9.66856060606061  0 9.54545454545455  L 0 8.63636363636364  C 0 8.51325757575758  0.0494791666666667 8.40672348484848  0.1484375 8.31676136363636  C 0.247395833333333 8.22679924242424  0.364583333333333 8.18181818181818  0.5 8  L 13.5 8  C 13.6354166666667 8.18181818181818  13.7526041666667 8.22679924242424  13.8515625 8.31676136363636  Z M 13.8515625 5.58948863636364  C 13.9505208333333 5.67945075757576  14 5.78598484848485  14 5.90909090909091  L 14 6.81818181818182  C 14 6.94128787878788  13.9505208333333 7.04782196969697  13.8515625 7.13778409090909  C 13.7526041666667 7.22774621212121  13.6354166666667 7.27272727272727  13.5 7.27272727272727  L 3.5 7.27272727272727  C 3.36458333333333 7.27272727272727  3.24739583333333 7.22774621212121  3.1484375 7.13778409090909  C 3.04947916666667 7.04782196969697  3 6.94128787878788  3 6.81818181818182  L 3 5.90909090909091  C 3 5.78598484848485  3.04947916666667 5.67945075757576  3.1484375 5.58948863636364  C 3.24739583333333 5.49952651515151  3.36458333333333 5.45454545454545  3.5 5.45454545454545  L 13.5 5.45454545454545  C 13.6354166666667 5.45454545454545  13.7526041666667 5.49952651515151  13.8515625 5.58948863636364  Z M 13.8515625 2.86221590909091  C 13.9505208333333 2.95217803030303  14 3.05871212121212  14 3.18181818181818  L 14 4.09090909090909  C 14 4.21401515151515  13.9505208333333 4.32054924242424  13.8515625 4.41051136363636  C 13.7526041666667 4.50047348484849  13.6354166666667 4.54545454545455  13.5 4.54545454545455  L 1.5 4.54545454545455  C 1.36458333333333 4.54545454545455  1.24739583333333 4.50047348484849  1.1484375 4.41051136363636  C 1.04947916666667 4.32054924242424  1 4.21401515151515  1 4.09090909090909  L 1 3.18181818181818  C 1 3.05871212121212  1.04947916666667 2.95217803030303  1.1484375 2.86221590909091  C 1.24739583333333 2.77225378787879  1.36458333333333 2.72727272727273  1.5 2.72727272727273  L 13.5 2.72727272727273  C 13.6354166666667 2.72727272727273  13.7526041666667 2.77225378787879  13.8515625 2.86221590909091  Z M 13.8515625 0.134943181818182  C 13.9505208333333 0.224905303030302  14 0.331439393939393  14 0.454545454545454  L 14 1.36363636363636  C 14 1.48674242424242  13.9505208333333 1.59327651515151  13.8515625 1.68323863636364  C 13.7526041666667 1.77320075757576  13.6354166666667 1.81818181818182  13.5 1.81818181818182  L 4.5 1.81818181818182  C 4.36458333333333 1.81818181818182  4.24739583333333 1.77320075757576  4.1484375 1.68323863636364  C 4.04947916666667 1.59327651515151  4 1.48674242424242  4 1.36363636363636  L 4 0.454545454545454  C 4 0.331439393939393  4.04947916666667 0.224905303030302  4.1484375 0.134943181818182  C 4.24739583333333 0.0449810606060597  4.36458333333333 0  4.5 0  L 13.5 0  C 13.6354166666667 0  13.7526041666667 0.0449810606060597  13.8515625 0.134943181818182  Z " fill-rule="nonzero" fill="#aaaaaa" stroke="none" transform="matrix(1 0 0 1 473 959 )" />
  </g>
</svg>