<?xml version="1.0" encoding="utf-8"?>
<svg version="1.1" xmlns:xlink="http://www.w3.org/1999/xlink" width="14px" height="14px" xmlns="http://www.w3.org/2000/svg">
  <g transform="matrix(1 0 0 1 -34 -157 )">
    <path d="M 7 3.70963541666667  L 8.33984375 8.73177083333333  L 5.66015625 8.73177083333333  L 7 3.70963541666667  Z M 8.3671875 8.8046875  L 9.12369791666667 11.6666666666667  L 11.9583333333333 11.6666666666667  L 9.00520833333333 2.33333333333333  L 4.99479166666667 2.33333333333333  L 2.04166666666667 11.6666666666667  L 4.87630208333333 11.6666666666667  L 8.3671875 8.8046875  Z M 13.2252604166667 0.774739583333333  C 13.7417534722222 1.29123263888889  14 1.90798611111111  14 2.625  L 14 11.375  C 14 12.0920138888889  13.7417534722222 12.7087673611111  13.2252604166667 13.2252604166667  C 12.7087673611111 13.7417534722222  12.0920138888889 14  11.375 14  L 2.625 14  C 1.90798611111111 14  1.29123263888889 13.7417534722222  0.774739583333333 13.2252604166667  C 0.258246527777778 12.7087673611111  0 12.0920138888889  0 11.375  L 0 2.625  C 0 1.90798611111111  0.258246527777778 1.29123263888889  0.774739583333333 0.774739583333333  C 1.29123263888889 0.258246527777777  1.90798611111111 0  2.625 0  L 11.375 0  C 12.0920138888889 0  12.7087673611111 0.258246527777777  13.2252604166667 0.774739583333333  Z " fill-rule="nonzero" fill="#333333" stroke="none" transform="matrix(1 0 0 1 34 157 )" />
  </g>
</svg>