<?xml version="1.0" encoding="utf-8"?>
<svg version="1.1" xmlns:xlink="http://www.w3.org/1999/xlink" width="14px" height="13px" xmlns="http://www.w3.org/2000/svg">
  <g transform="matrix(1 0 0 1 -1241 -325 )">
    <path d="M 13.6675224646983 6.07608695652174  C 13.8891741548994 6.30570652173913  14 6.57359601449275  14 6.87975543478261  C 14 7.18002717391304  13.8891741548994 7.44497282608696  13.6675224646983 7.67459239130435  L 12.9935815147625 8.33695652173913  C 12.7659392383398 8.5606884057971  12.4933675652546 8.67255434782609  12.1758664955071 8.67255434782609  C 11.8523748395379 8.67255434782609  11.5827984595635 8.5606884057971  11.3671373555841 8.33695652173913  L 8.72528883183569 5.74932065217391  L 8.72528883183569 11.9667119565217  C 8.72528883183569 12.2728713768116  8.61296534017972 12.5216259057971  8.38831835686778 12.7129755434783  C 8.16367137355584 12.9043251811594  7.8925973470261 13  7.57509627727856 13  L 6.42490372272144 13  C 6.1074026529739 13  5.83632862644416 12.9043251811594  5.61168164313222 12.7129755434783  C 5.38703465982028 12.5216259057971  5.27471116816431 12.2728713768116  5.27471116816431 11.9667119565217  L 5.27471116816431 5.74932065217391  L 2.63286264441592 8.33695652173913  C 2.41720154043646 8.5606884057971  2.14762516046213 8.67255434782609  1.82413350449294 8.67255434782609  C 1.50064184852375 8.67255434782609  1.23106546854942 8.5606884057971  1.01540436456996 8.33695652173913  L 0.341463414634146 7.67459239130435  C 0.113821138211382 7.45086050724638  0 7.18591485507246  0 6.87975543478261  C 0 6.56770833333333  0.113821138211382 6.29981884057971  0.341463414634146 6.07608695652174  L 6.19127086007702 0.326766304347826  C 6.40094137783483 0.108922101449275  6.67051775780916 0  7 0  C 7.32349165596919 0  7.59606332905434 0.108922101449275  7.81771501925546 0.326766304347826  L 13.6675224646983 6.07608695652174  Z " fill-rule="nonzero" fill="#ffffff" stroke="none" transform="matrix(1 0 0 1 1241 325 )" />
  </g>
</svg>