<?xml version="1.0" encoding="utf-8"?>
<svg version="1.1" xmlns:xlink="http://www.w3.org/1999/xlink" width="83px" height="83px" xmlns="http://www.w3.org/2000/svg">
  <g transform="matrix(1 0 0 1 -559 -408 )">
    <path d="M 81.3494318181818 31.8323863636364  C 82.4498106060606 32.9327651515151  83 34.2689393939394  83 35.8409090909091  L 83 47.1590909090909  C 83 48.7310606060606  82.4498106060606 50.0672348484848  81.3494318181818 51.1676136363636  C 80.249053030303 52.2679924242424  78.9128787878788 52.8181818181818  77.3409090909091 52  L 52 52  L 52 77.3409090909091  C 52.8181818181818 78.9128787878788  52.2679924242424 80.249053030303  51.1676136363636 81.3494318181818  C 50.0672348484849 82.4498106060606  48.7310606060606 83  47.1590909090909 83  L 35.8409090909091 83  C 34.2689393939394 83  32.9327651515152 82.4498106060606  31.8323863636364 81.3494318181818  C 30.7320075757576 80.249053030303  30.1818181818182 78.9128787878788  31 77.3409090909091  L 31 52  L 5.65909090909091 52  C 4.08712121212121 52.8181818181818  2.75094696969697 52.2679924242424  1.65056818181818 51.1676136363636  C 0.550189393939394 50.0672348484848  0 48.7310606060606  0 47.1590909090909  L 0 35.8409090909091  C 0 34.2689393939394  0.550189393939394 32.9327651515151  1.65056818181818 31.8323863636364  C 2.75094696969697 30.7320075757576  4.08712121212121 30.1818181818182  5.65909090909091 31  L 31 31  L 31 5.65909090909091  C 30.1818181818182 4.08712121212121  30.7320075757576 2.75094696969696  31.8323863636364 1.65056818181818  C 32.9327651515152 0.550189393939391  34.2689393939394 0  35.8409090909091 0  L 47.1590909090909 0  C 48.7310606060606 0  50.0672348484849 0.550189393939391  51.1676136363636 1.65056818181818  C 52.2679924242424 2.75094696969696  52.8181818181818 4.08712121212121  52 5.65909090909091  L 52 31  L 77.3409090909091 31  C 78.9128787878788 30.1818181818182  80.249053030303 30.7320075757576  81.3494318181818 31.8323863636364  Z " fill-rule="nonzero" fill="#ffffff" stroke="none" transform="matrix(1 0 0 1 559 408 )" />
  </g>
</svg>