<?xml version="1.0" encoding="utf-8"?>
<svg version="1.1" xmlns:xlink="http://www.w3.org/1999/xlink" width="13px" height="18px" xmlns="http://www.w3.org/2000/svg">
  <g transform="matrix(1 0 0 1 -13 -154 )">
    <path d="M 6.4239209948793 12.8227424749164  C 6.50950987564009 12.9498327759197  6.54913435747379 13.0903010033445  6.5427944403804 13.2441471571906  L 6.5427944403804 14.5183946488294  C 6.536454523287 16.4715719063545  6.51743477200683 17.4916387959866  6.48573518653987 17.5785953177258  C 6.40965618141917 17.7926421404682  6.24798829553767 17.9264214046823  6.00073152889539 17.9799331103679  C 5.65837600585223 18.0401337792642  5.08302852962692 17.9130434782609  4.27468910021946 17.5986622073579  C 3.466349670812 17.2842809364549  2.95123140697391 16.9866220735786  2.72933430870519 16.7056856187291  C 2.6469153864911 16.6053511705686  2.59302609119727 16.4849498327759  2.5676664228237 16.3444816053512  C 2.56132650573031 16.2642140468227  2.57400633991709 16.1772575250836  2.60570592538405 16.0836120401338  C 2.63106559375762 16.0167224080268  2.73884418434528 15.8595317725753  2.92904169714704 15.6120401337793  C 3.11923920994879 15.3645484949833  3.69300170690076 14.6421404682274  4.65032918800293 13.4448160535117  C 4.65666910509632 13.4448160535117  4.84686661789807 13.2107023411371  5.22092172640819 12.742474916388  C 5.31602048280907 12.6153846153846  5.44123384540356 12.5334448160535  5.59656181419166 12.4966555183946  C 5.75188978297976 12.4598662207358  5.90880273104121 12.4715719063545  6.06730065837601 12.5317725752508  C 6.21945866861741 12.5986622073579  6.33833211411851 12.695652173913  6.4239209948793 12.8227424749164  Z M 5.01645940014631 10.2391304347826  C 5.0957083638137 10.3829431438127  5.13216288710071 10.5451505016722  5.12582297000732 10.7257525083612  C 5.10680321872714 11.0936454849498  4.94196537429895 11.3277591973244  4.63130943672275 11.4280936454849  L 3.49012435991222 11.819397993311  C 1.74664715922946 12.4080267558528  0.821019263594245 12.7023411371237  0.713240673006584 12.7023411371237  C 0.491343574737869 12.6889632107023  0.320165813216289 12.5685618729097  0.199707388441843 12.3411371237458  C 0.123628383321141 12.1739130434783  0.0697390880273105 11.9230769230769  0.0380395025603511 11.5886287625418  C -0.0126798341867837 11.0802675585284  -0.00950987564008778 10.5234113712375  0.0475493782004389 9.9180602006689  C 0.104608632040966 9.31270903010033  0.199707388441844 8.89632107023411  0.332845647403072 8.66889632107023  C 0.465983906364301 8.44147157190635  0.643501584979274 8.33444816053512  0.865398683247988 8.34782608695652  C 0.947817605462082 8.34782608695652  1.58814923189466 8.60535117056856  2.78639356254572 9.12040133779264  C 3.23652767617654 9.31438127090301  3.60107290904657 9.47157190635451  3.88002926115582 9.59197324414716  L 4.67885881492319 9.93311036789298  C 4.8246769080712 9.9933110367893  4.93721043647891 10.0953177257525  5.01645940014631 10.2391304347826  Z M 12.7717629846379 13.0936454849498  C 12.9492806632529 13.2408026755853  13.0190197512802 13.4448160535117  12.9809802487198 13.7056856187291  C 12.9366008290661 14.066889632107  12.6465496220434 14.6053511705686  12.1108266276518 15.3210702341137  C 11.5751036332602 16.0367892976589  11.1455742501829 16.4615384615385  10.8222384784199 16.5953177257525  C 10.5876615459644 16.6889632107023  10.3879541575226 16.6655518394649  10.2231163130944 16.5250836120401  C 10.1343574737869 16.4581939799331  9.55108510119483 15.4983277591973  8.47329919531822 13.6454849498328  L 8.02633504023409 12.8729096989967  C 7.9375762009266 12.7324414715719  7.9011216776396 12.5785953177257  7.91697147037308 12.4113712374582  C 7.93282126310656 12.2441471571906  7.99463545476713 12.0903010033445  8.10241404535479 11.9498327759197  C 8.32431114362351 11.6622073578595  8.58741770299927 11.5752508361204  8.89173372348208 11.6889632107023  C 8.89807364057547 11.695652173913  9.27529870763229 11.8294314381271  10.0234089246525 12.0903010033445  C 11.3104120946111 12.5317725752508  12.0775420629115 12.7976588628763  12.3247988295538 12.8879598662207  C 12.572055596196 12.9782608695652  12.7210436478908 13.0468227424749  12.7717629846379 13.0936454849498  Z M 6.36210680321873 3.55685618729097  C 6.48256522799317 5.47993311036789  6.55864423311388 6.74916387959866  6.59034381858083 7.36454849498328  C 6.62204340404779 8.04682274247492  6.45086564252621 8.45484949832776  6.07681053401609 8.58862876254181  C 5.70909534259937 8.70234113712375  5.34772006827603 8.46488294314381  4.99268471104609 7.87625418060201  L 1.3979517190929 1.87625418060201  C 1.34723238234577 1.64214046822742  1.40746159473299 1.43478260869565  1.57863935625457 1.25418060200669  C 1.83857595708364 0.966555183946487  2.49634235552304 0.667224080267558  3.55193855157279 0.356187290969899  C 4.60753474762253 0.0451505016722378  5.31919044135577 -0.060200668896325  5.68690563277249 0.0401337792642147  C 5.94050231650817 0.107023411371235  6.09583028529627 0.257525083612038  6.1528895391368 0.491638795986622  C 6.17190929041697 0.612040133779264  6.24164837844428 1.63377926421405  6.36210680321873 3.55685618729097  Z M 12.8858814923189 8.4180602006689  L 12.8858814923189 8.44816053511706  C 12.9049012435991 8.70903010033445  12.822482321385 8.90635451505017  12.6386247256767 9.04013377926421  C 12.5435259692758 9.10702341137124  11.5006096074128 9.39464882943144  9.50987564008778 9.90301003344482  C 9.08510119483053 10.0033444816054  8.7966349670812 10.0802675585284  8.64447695683979 10.133779264214  L 8.65398683247988 10.1137123745819  C 8.50816873933187 10.1538461538462  8.36235064618386 10.1404682274247  8.21653255303585 10.0735785953177  C 8.07071445988783 10.0066889632107  7.95342599366008 9.89966555183947  7.8646671543526 9.75250836120401  C 7.67446964155084 9.438127090301  7.67446964155084 9.14715719063545  7.8646671543526 8.87959866220736  C 7.87100707144599 8.87290969899665  8.10875396244819 8.53177257525083  8.57790782735918 7.8561872909699  C 9.37039746403316 6.7123745819398  9.84589124603755 6.03010033444816  10.0043891733723 5.80936454849498  C 10.1628871007071 5.58862876254181  10.2706656912948 5.45819397993311  10.3277249451353 5.4180602006689  C 10.5052426237503 5.29096989966555  10.7112899292855 5.28428093645485  10.945866861741 5.39799331103679  C 11.2501828822238 5.55183946488294  11.6400877834674 5.99832775919732  12.1155815654718 6.73745819397993  C 12.5910753474762 7.47658862876254  12.8478419897586 8.03678929765886  12.8858814923189 8.4180602006689  Z " fill-rule="nonzero" fill="#333333" stroke="none" transform="matrix(1 0 0 1 13 154 )" />
  </g>
</svg>