<?xml version="1.0" encoding="utf-8"?>
<svg version="1.1" xmlns:xlink="http://www.w3.org/1999/xlink" width="86px" height="28px" xmlns="http://www.w3.org/2000/svg">
  <g transform="matrix(1 0 0 1 -1039 -16 )">
    <path d="M 1040 30  A 13 13 0 0 1 1053 17 L 1111 17  A 13 13 0 0 1 1124 30 A 13 13 0 0 1 1111 43 L 1053 43  A 13 13 0 0 1 1040 30 Z " fill-rule="nonzero" fill="#ffffff" stroke="none" fill-opacity="0.192156862745098" />
    <path d="M 1039.5 30  A 13.5 13.5 0 0 1 1053 16.5 L 1111 16.5  A 13.5 13.5 0 0 1 1124.5 30 A 13.5 13.5 0 0 1 1111 43.5 L 1053 43.5  A 13.5 13.5 0 0 1 1039.5 30 Z " stroke-width="1" stroke="#ffffff" fill="none" stroke-opacity="0.325490196078431" />
  </g>
</svg>