<?xml version="1.0" encoding="utf-8"?>
<svg version="1.1" xmlns:xlink="http://www.w3.org/1999/xlink" width="11px" height="17px" xmlns="http://www.w3.org/2000/svg">
  <g transform="matrix(1 0 0 1 -865 -229 )">
    <path d="M 11 8.5  C 11 8.68279569892473  10.9327541827542 8.84098428453267  10.7982625482625 8.97456575682382  L 2.91988416988417 16.7996277915633  C 2.78539253539254 16.9332092638544  2.62612612612613 17  2.44208494208494 17  C 2.25804375804376 17  2.09877734877735 16.9332092638544  1.96428571428571 16.7996277915633  L 0.201737451737452 15.0490074441687  C 0.0672458172458174 14.9154259718776  0 14.7572373862696  0 14.5744416873449  C 0 14.3916459884202  0.0672458172458174 14.2334574028122  0.201737451737452 14.0998759305211  L 5.83976833976834 8.5  L 0.201737451737452 2.90012406947891  C 0.0672458172458174 2.76654259718776  0 2.60835401157982  0 2.42555831265509  C 0 2.24276261373035  0.0672458172458174 2.08457402812241  0.201737451737452 1.95099255583127  L 1.96428571428571 0.200372208436724  C 2.09877734877735 0.0667907361455741  2.25804375804376 0  2.44208494208494 0  C 2.62612612612613 0  2.78539253539254 0.0667907361455741  2.91988416988417 0.200372208436724  L 10.7982625482625 8.02543424317618  C 10.9327541827542 8.15901571546733  11 8.31720430107527  11 8.5  Z " fill-rule="nonzero" fill="#d7d7d7" stroke="none" transform="matrix(1 0 0 1 865 229 )" />
  </g>
</svg>