<?xml version="1.0" encoding="utf-8"?>
<svg version="1.1" xmlns:xlink="http://www.w3.org/1999/xlink" width="146px" height="93px" xmlns="http://www.w3.org/2000/svg">
  <g transform="matrix(1 0 0 1 -588 -313 )">
    <path d="M 20.4641544117647 72.8544034090909  C 18.3618259803922 70.7848011363636  15.8345588235294 69.75  12.8823529411765 69.75  C 9.93014705882353 69.75  7.40287990196079 70.7848011363636  5.30055147058824 72.8544034090909  C 3.19822303921569 74.9240056818182  2.14705882352941 77.4119318181818  2.14705882352941 80.3181818181818  C 2.14705882352941 83.2244318181818  3.19822303921569 85.7123579545455  5.30055147058824 87.7819602272727  C 7.40287990196079 89.8515625  9.93014705882353 90.8863636363636  12.8823529411765 90.8863636363636  C 15.8345588235294 90.8863636363636  18.3618259803922 89.8515625  20.4641544117647 87.7819602272727  C 22.5664828431373 85.7123579545455  23.6176470588235 83.2244318181818  23.6176470588235 80.3181818181818  C 23.6176470588235 77.4119318181818  22.5664828431373 74.9240056818182  20.4641544117647 72.8544034090909  Z M 54.8170955882353 72.8544034090909  C 52.7147671568627 70.7848011363636  50.1875 69.75  47.2352941176471 69.75  C 44.2830882352941 69.75  41.7558210784314 70.7848011363636  39.6534926470588 72.8544034090909  C 37.5511642156863 74.9240056818182  36.5 77.4119318181818  36.5 80.3181818181818  C 36.5 83.2244318181818  37.5511642156863 85.7123579545455  39.6534926470588 87.7819602272727  C 41.7558210784314 89.8515625  44.2830882352941 90.8863636363636  47.2352941176471 90.8863636363636  C 50.1875 90.8863636363636  52.7147671568627 89.8515625  54.8170955882353 87.7819602272727  C 56.9194240196079 85.7123579545455  57.9705882352941 83.2244318181818  57.9705882352941 80.3181818181818  C 57.9705882352941 77.4119318181818  56.9194240196079 74.9240056818182  54.8170955882353 72.8544034090909  Z M 54.8170955882353 39.0362215909091  C 52.7147671568627 36.9666193181818  50.1875 35.9318181818182  47.2352941176471 35.9318181818182  C 44.2830882352941 35.9318181818182  41.7558210784314 36.9666193181818  39.6534926470588 39.0362215909091  C 37.5511642156863 41.1058238636364  36.5 43.59375  36.5 46.5  C 36.5 49.40625  37.5511642156863 51.8941761363636  39.6534926470588 53.9637784090909  C 41.7558210784314 56.0333806818182  44.2830882352941 57.0681818181818  47.2352941176471 57.0681818181818  C 50.1875 57.0681818181818  52.7147671568627 56.0333806818182  54.8170955882353 53.9637784090909  C 56.9194240196079 51.8941761363636  57.9705882352941 49.40625  57.9705882352941 46.5  C 57.9705882352941 43.59375  56.9194240196079 41.1058238636364  54.8170955882353 39.0362215909091  Z M 106.346507352941 72.8544034090909  C 104.244178921569 70.7848011363636  101.716911764706 69.75  98.7647058823529 69.75  C 95.8125 69.75  93.2852328431373 70.7848011363636  91.1829044117647 72.8544034090909  C 89.0805759803922 74.9240056818182  88.0294117647059 77.4119318181818  88.0294117647059 80.3181818181818  C 88.0294117647059 83.2244318181818  89.0805759803922 85.7123579545455  91.1829044117647 87.7819602272727  C 93.2852328431373 89.8515625  95.8125 90.8863636363636  98.7647058823529 90.8863636363636  C 101.716911764706 90.8863636363636  104.244178921569 89.8515625  106.346507352941 87.7819602272727  C 108.448835784314 85.7123579545455  109.5 83.2244318181818  109.5 80.3181818181818  C 109.5 77.4119318181818  108.448835784314 74.9240056818182  106.346507352941 72.8544034090909  Z M 140.699448529412 72.8544034090909  C 138.597120098039 70.7848011363636  136.069852941176 69.75  133.117647058824 69.75  C 130.165441176471 69.75  127.638174019608 70.7848011363636  125.535845588235 72.8544034090909  C 123.433517156863 74.9240056818182  122.382352941176 77.4119318181818  122.382352941176 80.3181818181818  C 122.382352941176 83.2244318181818  123.433517156863 85.7123579545455  125.535845588235 87.7819602272727  C 127.638174019608 89.8515625  130.165441176471 90.8863636363636  133.117647058824 90.8863636363636  C 136.069852941176 90.8863636363636  138.597120098039 89.8515625  140.699448529412 87.7819602272727  C 142.801776960784 85.7123579545455  143.852941176471 83.2244318181818  143.852941176471 80.3181818181818  C 143.852941176471 77.4119318181818  142.801776960784 74.9240056818182  140.699448529412 72.8544034090909  Z M 106.346507352941 39.0362215909091  C 104.244178921569 36.9666193181818  101.716911764706 35.9318181818182  98.7647058823529 35.9318181818182  C 95.8125 35.9318181818182  93.2852328431373 36.9666193181818  91.1829044117647 39.0362215909091  C 89.0805759803922 41.1058238636364  88.0294117647059 43.59375  88.0294117647059 46.5  C 88.0294117647059 49.40625  89.0805759803922 51.8941761363636  91.1829044117647 53.9637784090909  C 93.2852328431373 56.0333806818182  95.8125 57.0681818181818  98.7647058823529 57.0681818181818  C 101.716911764706 57.0681818181818  104.244178921569 56.0333806818182  106.346507352941 53.9637784090909  C 108.448835784314 51.8941761363636  109.5 49.40625  109.5 46.5  C 109.5 43.59375  108.448835784314 41.1058238636364  106.346507352941 39.0362215909091  Z M 140.699448529412 39.0362215909091  C 138.597120098039 36.9666193181818  136.069852941176 35.9318181818182  133.117647058824 35.9318181818182  C 130.165441176471 35.9318181818182  127.638174019608 36.9666193181818  125.535845588235 39.0362215909091  C 123.433517156863 41.1058238636364  122.382352941176 43.59375  122.382352941176 46.5  C 122.382352941176 49.40625  123.433517156863 51.8941761363636  125.535845588235 53.9637784090909  C 127.638174019608 56.0333806818182  130.165441176471 57.0681818181818  133.117647058824 57.0681818181818  C 136.069852941176 57.0681818181818  138.597120098039 56.0333806818182  140.699448529412 53.9637784090909  C 142.801776960784 51.8941761363636  143.852941176471 49.40625  143.852941176471 46.5  C 143.852941176471 43.59375  142.801776960784 41.1058238636364  140.699448529412 39.0362215909091  Z M 140.699448529412 5.21803977272728  C 138.597120098039 3.14843749999999  136.069852941176 2.11363636363636  133.117647058824 2.11363636363636  C 130.165441176471 2.11363636363636  127.638174019608 3.14843749999999  125.535845588235 5.21803977272728  C 123.433517156863 7.28764204545454  122.382352941176 9.77556818181818  122.382352941176 12.6818181818182  C 122.382352941176 15.5880681818182  123.433517156863 18.0759943181818  125.535845588235 20.1455965909091  C 127.638174019608 22.2151988636364  130.165441176471 23.25  133.117647058824 23.25  C 136.069852941176 23.25  138.597120098039 22.2151988636364  140.699448529412 20.1455965909091  C 142.801776960784 18.0759943181818  143.852941176471 15.5880681818182  143.852941176471 12.6818181818182  C 143.852941176471 9.77556818181818  142.801776960784 7.28764204545454  140.699448529412 5.21803977272728  Z M 22.0073529411765 71.3352272727273  C 24.5122549019608 73.8011363636364  25.7647058823529 76.7954545454545  25.7647058823529 80.3181818181818  C 25.7647058823529 83.8409090909091  24.5122549019608 86.8352272727273  22.0073529411765 89.3011363636364  C 19.5024509803922 91.7670454545455  16.4607843137255 93  12.8823529411765 93  C 9.30392156862745 93  6.26225490196079 91.7670454545455  3.75735294117647 89.3011363636364  C 1.25245098039216 86.8352272727273  0 83.8409090909091  0 80.3181818181818  C 0 76.7954545454545  1.25245098039216 73.8011363636364  3.75735294117647 71.3352272727273  C 6.26225490196079 68.8693181818182  9.30392156862745 67.6363636363636  12.8823529411765 67.6363636363636  C 16.4607843137255 67.6363636363636  19.5024509803922 68.8693181818182  22.0073529411765 71.3352272727273  Z M 56.3602941176471 71.3352272727273  C 58.8651960784314 73.8011363636364  60.1176470588235 76.7954545454545  60.1176470588235 80.3181818181818  C 60.1176470588235 83.8409090909091  58.8651960784314 86.8352272727273  56.3602941176471 89.3011363636364  C 53.8553921568627 91.7670454545455  50.8137254901961 93  47.2352941176471 93  C 43.656862745098 93  40.6151960784314 91.7670454545455  38.1102941176471 89.3011363636364  C 35.6053921568627 86.8352272727273  34.3529411764706 83.8409090909091  34.3529411764706 80.3181818181818  C 34.3529411764706 76.7954545454545  35.6053921568627 73.8011363636364  38.1102941176471 71.3352272727273  C 40.6151960784314 68.8693181818182  43.656862745098 67.6363636363636  47.2352941176471 67.6363636363636  C 50.8137254901961 67.6363636363636  53.8553921568627 68.8693181818182  56.3602941176471 71.3352272727273  Z M 22.0073529411765 37.5170454545455  C 24.5122549019608 39.9829545454545  25.7647058823529 42.9772727272727  25.7647058823529 46.5  C 25.7647058823529 50.0227272727273  24.5122549019608 53.0170454545455  22.0073529411765 55.4829545454546  C 19.5024509803922 57.9488636363636  16.4607843137255 59.1818181818182  12.8823529411765 59.1818181818182  C 9.30392156862745 59.1818181818182  6.26225490196079 57.9488636363636  3.75735294117647 55.4829545454546  C 1.25245098039216 53.0170454545455  0 50.0227272727273  0 46.5  C 0 42.9772727272727  1.25245098039216 39.9829545454545  3.75735294117647 37.5170454545455  C 6.26225490196079 35.0511363636364  9.30392156862745 33.8181818181818  12.8823529411765 33.8181818181818  C 16.4607843137255 33.8181818181818  19.5024509803922 35.0511363636364  22.0073529411765 37.5170454545455  Z M 56.3602941176471 37.5170454545455  C 58.8651960784314 39.9829545454545  60.1176470588235 42.9772727272727  60.1176470588235 46.5  C 60.1176470588235 50.0227272727273  58.8651960784314 53.0170454545455  56.3602941176471 55.4829545454546  C 53.8553921568627 57.9488636363636  50.8137254901961 59.1818181818182  47.2352941176471 59.1818181818182  C 43.656862745098 59.1818181818182  40.6151960784314 57.9488636363636  38.1102941176471 55.4829545454546  C 35.6053921568627 53.0170454545455  34.3529411764706 50.0227272727273  34.3529411764706 46.5  C 34.3529411764706 42.9772727272727  35.6053921568627 39.9829545454545  38.1102941176471 37.5170454545455  C 40.6151960784314 35.0511363636364  43.656862745098 33.8181818181818  47.2352941176471 33.8181818181818  C 50.8137254901961 33.8181818181818  53.8553921568627 35.0511363636364  56.3602941176471 37.5170454545455  Z M 22.0073529411765 3.69886363636364  C 24.5122549019608 6.16477272727273  25.7647058823529 9.1590909090909  25.7647058823529 12.6818181818182  C 25.7647058823529 16.2045454545455  24.5122549019608 19.1988636363636  22.0073529411765 21.6647727272727  C 19.5024509803922 24.1306818181818  16.4607843137255 25.3636363636364  12.8823529411765 25.3636363636364  C 9.30392156862745 25.3636363636364  6.26225490196079 24.1306818181818  3.75735294117647 21.6647727272727  C 1.25245098039216 19.1988636363636  0 16.2045454545455  0 12.6818181818182  C 0 9.1590909090909  1.25245098039216 6.16477272727273  3.75735294117647 3.69886363636364  C 6.26225490196079 1.23295454545454  9.30392156862745 0  12.8823529411765 0  C 16.4607843137255 0  19.5024509803922 1.23295454545454  22.0073529411765 3.69886363636364  Z M 107.889705882353 71.3352272727273  C 110.394607843137 73.8011363636364  111.647058823529 76.7954545454545  111.647058823529 80.3181818181818  C 111.647058823529 83.8409090909091  110.394607843137 86.8352272727273  107.889705882353 89.3011363636364  C 105.384803921569 91.7670454545455  102.343137254902 93  98.7647058823529 93  C 95.1862745098039 93  92.1446078431373 91.7670454545455  89.6397058823529 89.3011363636364  C 87.1348039215686 86.8352272727273  85.8823529411765 83.8409090909091  85.8823529411765 80.3181818181818  C 85.8823529411765 76.7954545454545  87.1348039215686 73.8011363636364  89.6397058823529 71.3352272727273  C 92.1446078431373 68.8693181818182  95.1862745098039 67.6363636363636  98.7647058823529 67.6363636363636  C 102.343137254902 67.6363636363636  105.384803921569 68.8693181818182  107.889705882353 71.3352272727273  Z M 56.3602941176471 3.69886363636364  C 58.8651960784314 6.16477272727273  60.1176470588235 9.1590909090909  60.1176470588235 12.6818181818182  C 60.1176470588235 16.2045454545455  58.8651960784314 19.1988636363636  56.3602941176471 21.6647727272727  C 53.8553921568627 24.1306818181818  50.8137254901961 25.3636363636364  47.2352941176471 25.3636363636364  C 43.656862745098 25.3636363636364  40.6151960784314 24.1306818181818  38.1102941176471 21.6647727272727  C 35.6053921568627 19.1988636363636  34.3529411764706 16.2045454545455  34.3529411764706 12.6818181818182  C 34.3529411764706 9.1590909090909  35.6053921568627 6.16477272727273  38.1102941176471 3.69886363636364  C 40.6151960784314 1.23295454545454  43.656862745098 0  47.2352941176471 0  C 50.8137254901961 0  53.8553921568627 1.23295454545454  56.3602941176471 3.69886363636364  Z M 142.242647058824 71.3352272727273  C 144.747549019608 73.8011363636364  146 76.7954545454545  146 80.3181818181818  C 146 83.8409090909091  144.747549019608 86.8352272727273  142.242647058824 89.3011363636364  C 139.737745098039 91.7670454545455  136.696078431373 93  133.117647058824 93  C 129.539215686275 93  126.497549019608 91.7670454545455  123.992647058824 89.3011363636364  C 121.487745098039 86.8352272727273  120.235294117647 83.8409090909091  120.235294117647 80.3181818181818  C 120.235294117647 76.7954545454545  121.487745098039 73.8011363636364  123.992647058824 71.3352272727273  C 126.497549019608 68.8693181818182  129.539215686275 67.6363636363636  133.117647058824 67.6363636363636  C 136.696078431373 67.6363636363636  139.737745098039 68.8693181818182  142.242647058824 71.3352272727273  Z M 107.889705882353 37.5170454545455  C 110.394607843137 39.9829545454545  111.647058823529 42.9772727272727  111.647058823529 46.5  C 111.647058823529 50.0227272727273  110.394607843137 53.0170454545455  107.889705882353 55.4829545454546  C 105.384803921569 57.9488636363636  102.343137254902 59.1818181818182  98.7647058823529 59.1818181818182  C 95.1862745098039 59.1818181818182  92.1446078431373 57.9488636363636  89.6397058823529 55.4829545454546  C 87.1348039215686 53.0170454545455  85.8823529411765 50.0227272727273  85.8823529411765 46.5  C 85.8823529411765 42.9772727272727  87.1348039215686 39.9829545454545  89.6397058823529 37.5170454545455  C 92.1446078431373 35.0511363636364  95.1862745098039 33.8181818181818  98.7647058823529 33.8181818181818  C 102.343137254902 33.8181818181818  105.384803921569 35.0511363636364  107.889705882353 37.5170454545455  Z M 142.242647058824 37.5170454545455  C 144.747549019608 39.9829545454545  146 42.9772727272727  146 46.5  C 146 50.0227272727273  144.747549019608 53.0170454545455  142.242647058824 55.4829545454546  C 139.737745098039 57.9488636363636  136.696078431373 59.1818181818182  133.117647058824 59.1818181818182  C 129.539215686275 59.1818181818182  126.497549019608 57.9488636363636  123.992647058824 55.4829545454546  C 121.487745098039 53.0170454545455  120.235294117647 50.0227272727273  120.235294117647 46.5  C 120.235294117647 42.9772727272727  121.487745098039 39.9829545454545  123.992647058824 37.5170454545455  C 126.497549019608 35.0511363636364  129.539215686275 33.8181818181818  133.117647058824 33.8181818181818  C 136.696078431373 33.8181818181818  139.737745098039 35.0511363636364  142.242647058824 37.5170454545455  Z M 107.889705882353 3.69886363636364  C 110.394607843137 6.16477272727273  111.647058823529 9.1590909090909  111.647058823529 12.6818181818182  C 111.647058823529 16.2045454545455  110.394607843137 19.1988636363636  107.889705882353 21.6647727272727  C 105.384803921569 24.1306818181818  102.343137254902 25.3636363636364  98.7647058823529 25.3636363636364  C 95.1862745098039 25.3636363636364  92.1446078431373 24.1306818181818  89.6397058823529 21.6647727272727  C 87.1348039215686 19.1988636363636  85.8823529411765 16.2045454545455  85.8823529411765 12.6818181818182  C 85.8823529411765 9.1590909090909  87.1348039215686 6.16477272727273  89.6397058823529 3.69886363636364  C 92.1446078431373 1.23295454545454  95.1862745098039 0  98.7647058823529 0  C 102.343137254902 0  105.384803921569 1.23295454545454  107.889705882353 3.69886363636364  Z M 142.242647058824 3.69886363636364  C 144.747549019608 6.16477272727273  146 9.1590909090909  146 12.6818181818182  C 146 16.2045454545455  144.747549019608 19.1988636363636  142.242647058824 21.6647727272727  C 139.737745098039 24.1306818181818  136.696078431373 25.3636363636364  133.117647058824 25.3636363636364  C 129.539215686275 25.3636363636364  126.497549019608 24.1306818181818  123.992647058824 21.6647727272727  C 121.487745098039 19.1988636363636  120.235294117647 16.2045454545455  120.235294117647 12.6818181818182  C 120.235294117647 9.1590909090909  121.487745098039 6.16477272727273  123.992647058824 3.69886363636364  C 126.497549019608 1.23295454545454  129.539215686275 0  133.117647058824 0  C 136.696078431373 0  139.737745098039 1.23295454545454  142.242647058824 3.69886363636364  Z " fill-rule="nonzero" fill="#555555" stroke="none" transform="matrix(1 0 0 1 588 313 )" />
  </g>
</svg>